<mxfile host="www.draw.io" modified="2019-12-07T09:18:24.834Z" agent="Mozilla/5.0 (Windows NT 10.0; Win64; x64) AppleWebKit/537.36 (KHTML, like Gecko) Chrome/78.0.3904.108 Safari/537.36" etag="vjxNNRAzXUBT8hsVFz9A" version="12.3.8" type="github" pages="1">
  <diagram name="Page-1" id="0783ab3e-0a74-02c8-0abd-f7b4e66b4bec">
    <mxGraphModel dx="1422" dy="713" grid="1" gridSize="10" guides="1" tooltips="1" connect="1" arrows="1" fold="1" page="1" pageScale="1" pageWidth="850" pageHeight="1100" background="#ffffff" math="0" shadow="0">
      <root>
        <mxCell id="0"/>
        <mxCell id="1" parent="0"/>
        <mxCell id="1c1d494c118603dd-1" value="资金流向" style="swimlane;html=1;childLayout=stackLayout;startSize=20;rounded=0;shadow=0;comic=0;labelBackgroundColor=none;strokeWidth=1;fontFamily=Verdana;fontSize=12;align=center;" parent="1" vertex="1">
          <mxGeometry x="40" y="20" width="1500" height="990" as="geometry"/>
        </mxCell>
        <mxCell id="1c1d494c118603dd-2" value="货主账户及明细" style="swimlane;html=1;startSize=20;" parent="1c1d494c118603dd-1" vertex="1">
          <mxGeometry y="20" width="250" height="970" as="geometry"/>
        </mxCell>
        <mxCell id="1c1d494c118603dd-6" value="提现" style="rounded=1;whiteSpace=wrap;html=1;shadow=0;comic=0;labelBackgroundColor=none;strokeWidth=1;fontFamily=Verdana;fontSize=12;align=center;arcSize=50;" parent="1c1d494c118603dd-2" vertex="1">
          <mxGeometry x="62.5" y="100" width="100" height="30" as="geometry"/>
        </mxCell>
        <mxCell id="1c1d494c118603dd-21" value="说明" style="shape=note;whiteSpace=wrap;html=1;rounded=0;shadow=0;comic=0;labelBackgroundColor=none;strokeWidth=1;fontFamily=Verdana;fontSize=12;align=center;size=20;" parent="1c1d494c118603dd-2" vertex="1">
          <mxGeometry x="62.5" y="500" width="85" height="42" as="geometry"/>
        </mxCell>
        <mxCell id="I3AY7QKZR8Awk9amFQ1F-123" value="充值" style="rounded=1;whiteSpace=wrap;html=1;shadow=0;comic=0;labelBackgroundColor=none;strokeWidth=1;fontFamily=Verdana;fontSize=12;align=center;arcSize=50;" vertex="1" parent="1c1d494c118603dd-2">
          <mxGeometry x="62.5" y="50" width="100" height="30" as="geometry"/>
        </mxCell>
        <mxCell id="I3AY7QKZR8Awk9amFQ1F-125" value="余额表" style="rounded=0;whiteSpace=wrap;html=1;shadow=0;comic=0;labelBackgroundColor=none;strokeWidth=1;fontFamily=Verdana;fontSize=12;align=center;arcSize=50;" vertex="1" parent="1c1d494c118603dd-2">
          <mxGeometry x="27.5" y="420" width="70" height="30" as="geometry"/>
        </mxCell>
        <mxCell id="I3AY7QKZR8Awk9amFQ1F-126" value="明细表" style="rounded=0;whiteSpace=wrap;html=1;shadow=0;comic=0;labelBackgroundColor=none;strokeWidth=1;fontFamily=Verdana;fontSize=12;align=center;arcSize=50;" vertex="1" parent="1c1d494c118603dd-2">
          <mxGeometry x="105" y="420" width="70" height="30" as="geometry"/>
        </mxCell>
        <mxCell id="I3AY7QKZR8Awk9amFQ1F-127" value="支付运费" style="rounded=1;whiteSpace=wrap;html=1;shadow=0;comic=0;labelBackgroundColor=none;strokeWidth=1;fontFamily=Verdana;fontSize=12;align=center;arcSize=50;" vertex="1" parent="1c1d494c118603dd-2">
          <mxGeometry x="62.5" y="150" width="100" height="30" as="geometry"/>
        </mxCell>
        <mxCell id="1c1d494c118603dd-3" value="运营中心账户及明细" style="swimlane;html=1;startSize=20;" parent="1c1d494c118603dd-1" vertex="1">
          <mxGeometry x="250" y="20" width="250" height="970" as="geometry"/>
        </mxCell>
        <mxCell id="1c1d494c118603dd-40" style="edgeStyle=none;rounded=0;html=1;labelBackgroundColor=none;startArrow=none;startFill=0;startSize=5;endArrow=classicThin;endFill=1;endSize=5;jettySize=auto;orthogonalLoop=1;strokeWidth=1;fontFamily=Verdana;fontSize=12" parent="1c1d494c118603dd-3" source="1c1d494c118603dd-11" target="1c1d494c118603dd-15" edge="1">
          <mxGeometry relative="1" as="geometry"/>
        </mxCell>
        <mxCell id="1c1d494c118603dd-11" value="Action" style="rounded=1;whiteSpace=wrap;html=1;shadow=0;comic=0;labelBackgroundColor=none;strokeWidth=1;fontFamily=Verdana;fontSize=12;align=center;arcSize=50;" parent="1c1d494c118603dd-3" vertex="1">
          <mxGeometry x="64" y="450" width="100" height="30" as="geometry"/>
        </mxCell>
        <mxCell id="1c1d494c118603dd-39" style="edgeStyle=none;rounded=0;html=1;labelBackgroundColor=none;startArrow=none;startFill=0;startSize=5;endArrow=classicThin;endFill=1;endSize=5;jettySize=auto;orthogonalLoop=1;strokeWidth=1;fontFamily=Verdana;fontSize=12" parent="1c1d494c118603dd-3" source="1c1d494c118603dd-12" target="1c1d494c118603dd-11" edge="1">
          <mxGeometry relative="1" as="geometry"/>
        </mxCell>
        <mxCell id="1c1d494c118603dd-12" value="" style="whiteSpace=wrap;html=1;rounded=0;shadow=0;comic=0;labelBackgroundColor=none;strokeWidth=1;fillColor=#000000;fontFamily=Verdana;fontSize=12;align=center;rotation=0;" parent="1c1d494c118603dd-3" vertex="1">
          <mxGeometry x="40" y="410" width="147" height="10" as="geometry"/>
        </mxCell>
        <mxCell id="1c1d494c118603dd-32" style="edgeStyle=orthogonalEdgeStyle;rounded=0;html=1;entryX=0.25;entryY=0;labelBackgroundColor=none;startArrow=none;startFill=0;startSize=5;endArrow=classicThin;endFill=1;endSize=5;jettySize=auto;orthogonalLoop=1;strokeWidth=1;fontFamily=Verdana;fontSize=12" parent="1c1d494c118603dd-3" target="1c1d494c118603dd-12" edge="1">
          <mxGeometry relative="1" as="geometry">
            <mxPoint x="30" y="380" as="sourcePoint"/>
          </mxGeometry>
        </mxCell>
        <mxCell id="1c1d494c118603dd-41" style="edgeStyle=none;rounded=0;html=1;labelBackgroundColor=none;startArrow=none;startFill=0;startSize=5;endArrow=classicThin;endFill=1;endSize=5;jettySize=auto;orthogonalLoop=1;strokeWidth=1;fontFamily=Verdana;fontSize=12" parent="1c1d494c118603dd-3" source="1c1d494c118603dd-15" target="1c1d494c118603dd-16" edge="1">
          <mxGeometry relative="1" as="geometry"/>
        </mxCell>
        <mxCell id="1c1d494c118603dd-15" value="Object" style="rounded=0;whiteSpace=wrap;html=1;shadow=0;comic=0;labelBackgroundColor=none;strokeWidth=1;fontFamily=Verdana;fontSize=12;align=center;arcSize=50;" parent="1c1d494c118603dd-3" vertex="1">
          <mxGeometry x="125" y="510" width="70" height="30" as="geometry"/>
        </mxCell>
        <mxCell id="1c1d494c118603dd-16" value="Action" style="rounded=1;whiteSpace=wrap;html=1;shadow=0;comic=0;labelBackgroundColor=none;strokeWidth=1;fontFamily=Verdana;fontSize=12;align=center;arcSize=50;" parent="1c1d494c118603dd-3" vertex="1">
          <mxGeometry x="85" y="580" width="100" height="30" as="geometry"/>
        </mxCell>
        <mxCell id="1c1d494c118603dd-52" style="edgeStyle=none;rounded=0;html=1;dashed=1;labelBackgroundColor=none;startArrow=none;startFill=0;startSize=5;endArrow=oval;endFill=0;endSize=5;jettySize=auto;orthogonalLoop=1;strokeWidth=1;fontFamily=Verdana;fontSize=12" parent="1c1d494c118603dd-3" source="1c1d494c118603dd-23" target="1c1d494c118603dd-11" edge="1">
          <mxGeometry relative="1" as="geometry"/>
        </mxCell>
        <mxCell id="1c1d494c118603dd-53" style="edgeStyle=none;rounded=0;html=1;dashed=1;labelBackgroundColor=none;startArrow=none;startFill=0;startSize=5;endArrow=oval;endFill=0;endSize=5;jettySize=auto;orthogonalLoop=1;strokeWidth=1;fontFamily=Verdana;fontSize=12" parent="1c1d494c118603dd-3" source="1c1d494c118603dd-23" target="1c1d494c118603dd-15" edge="1">
          <mxGeometry relative="1" as="geometry"/>
        </mxCell>
        <mxCell id="1c1d494c118603dd-23" value="Note" style="shape=note;whiteSpace=wrap;html=1;rounded=0;shadow=0;comic=0;labelBackgroundColor=none;strokeWidth=1;fontFamily=Verdana;fontSize=12;align=center;size=20;" parent="1c1d494c118603dd-3" vertex="1">
          <mxGeometry x="10" y="510" width="90" height="55" as="geometry"/>
        </mxCell>
        <mxCell id="1c1d494c118603dd-54" style="edgeStyle=none;rounded=0;html=1;dashed=1;labelBackgroundColor=none;startArrow=none;startFill=0;startSize=5;endArrow=oval;endFill=0;endSize=5;jettySize=auto;orthogonalLoop=1;strokeWidth=1;fontFamily=Verdana;fontSize=12" parent="1c1d494c118603dd-3" source="1c1d494c118603dd-24" target="1c1d494c118603dd-16" edge="1">
          <mxGeometry relative="1" as="geometry"/>
        </mxCell>
        <mxCell id="1c1d494c118603dd-24" value="Note" style="shape=note;whiteSpace=wrap;html=1;rounded=0;shadow=0;comic=0;labelBackgroundColor=none;strokeWidth=1;fontFamily=Verdana;fontSize=12;align=center;size=20;" parent="1c1d494c118603dd-3" vertex="1">
          <mxGeometry x="40" y="648" width="105" height="55" as="geometry"/>
        </mxCell>
        <mxCell id="1c1d494c118603dd-42" style="edgeStyle=none;rounded=0;html=1;labelBackgroundColor=none;startArrow=none;startFill=0;startSize=5;endArrow=classicThin;endFill=1;endSize=5;jettySize=auto;orthogonalLoop=1;strokeWidth=1;fontFamily=Verdana;fontSize=12" parent="1c1d494c118603dd-1" source="1c1d494c118603dd-16" target="1c1d494c118603dd-17" edge="1">
          <mxGeometry relative="1" as="geometry"/>
        </mxCell>
        <mxCell id="1c1d494c118603dd-55" style="edgeStyle=none;rounded=0;html=1;dashed=1;labelBackgroundColor=none;startArrow=none;startFill=0;startSize=5;endArrow=oval;endFill=0;endSize=5;jettySize=auto;orthogonalLoop=1;strokeWidth=1;fontFamily=Verdana;fontSize=12" parent="1c1d494c118603dd-1" source="1c1d494c118603dd-24" target="1c1d494c118603dd-17" edge="1">
          <mxGeometry relative="1" as="geometry"/>
        </mxCell>
        <mxCell id="1c1d494c118603dd-4" value="物流公司账户及明细" style="swimlane;html=1;startSize=20;" parent="1c1d494c118603dd-1" vertex="1">
          <mxGeometry x="500" y="20" width="250" height="970" as="geometry"/>
        </mxCell>
        <mxCell id="1c1d494c118603dd-9" value="余额表" style="rounded=0;whiteSpace=wrap;html=1;shadow=0;comic=0;labelBackgroundColor=none;strokeWidth=1;fontFamily=Verdana;fontSize=12;align=center;arcSize=50;" parent="1c1d494c118603dd-4" vertex="1">
          <mxGeometry x="26" y="200" width="70" height="30" as="geometry"/>
        </mxCell>
        <mxCell id="1c1d494c118603dd-43" style="edgeStyle=none;rounded=0;html=1;labelBackgroundColor=none;startArrow=none;startFill=0;startSize=5;endArrow=classicThin;endFill=1;endSize=5;jettySize=auto;orthogonalLoop=1;strokeWidth=1;fontFamily=Verdana;fontSize=12" parent="1c1d494c118603dd-4" source="1c1d494c118603dd-17" target="1c1d494c118603dd-18" edge="1">
          <mxGeometry relative="1" as="geometry"/>
        </mxCell>
        <mxCell id="1c1d494c118603dd-17" value="Object" style="rounded=0;whiteSpace=wrap;html=1;shadow=0;comic=0;labelBackgroundColor=none;strokeWidth=1;fontFamily=Verdana;fontSize=12;align=center;arcSize=50;" parent="1c1d494c118603dd-4" vertex="1">
          <mxGeometry x="-35" y="610" width="70" height="30" as="geometry"/>
        </mxCell>
        <mxCell id="1c1d494c118603dd-44" style="edgeStyle=none;rounded=0;html=1;labelBackgroundColor=none;startArrow=none;startFill=0;startSize=5;endArrow=classicThin;endFill=1;endSize=5;jettySize=auto;orthogonalLoop=1;strokeWidth=1;fontFamily=Verdana;fontSize=12" parent="1c1d494c118603dd-4" source="1c1d494c118603dd-18" target="1c1d494c118603dd-19" edge="1">
          <mxGeometry relative="1" as="geometry"/>
        </mxCell>
        <mxCell id="1c1d494c118603dd-18" value="Action" style="rounded=1;whiteSpace=wrap;html=1;shadow=0;comic=0;labelBackgroundColor=none;strokeWidth=1;fontFamily=Verdana;fontSize=12;align=center;arcSize=50;" parent="1c1d494c118603dd-4" vertex="1">
          <mxGeometry x="70" y="670" width="100" height="30" as="geometry"/>
        </mxCell>
        <mxCell id="1c1d494c118603dd-45" style="edgeStyle=none;rounded=0;html=1;labelBackgroundColor=none;startArrow=none;startFill=0;startSize=5;endArrow=classicThin;endFill=1;endSize=5;jettySize=auto;orthogonalLoop=1;strokeWidth=1;fontFamily=Verdana;fontSize=12" parent="1c1d494c118603dd-4" source="1c1d494c118603dd-19" target="60571a20871a0731-5" edge="1">
          <mxGeometry relative="1" as="geometry"/>
        </mxCell>
        <mxCell id="1c1d494c118603dd-19" value="Action" style="rounded=1;whiteSpace=wrap;html=1;shadow=0;comic=0;labelBackgroundColor=none;strokeWidth=1;fontFamily=Verdana;fontSize=12;align=center;arcSize=50;" parent="1c1d494c118603dd-4" vertex="1">
          <mxGeometry x="70" y="810" width="100" height="30" as="geometry"/>
        </mxCell>
        <mxCell id="60571a20871a0731-5" value="" style="shape=mxgraph.bpmn.shape;html=1;verticalLabelPosition=bottom;labelBackgroundColor=#ffffff;verticalAlign=top;perimeter=ellipsePerimeter;outline=end;symbol=terminate;rounded=0;shadow=0;comic=0;strokeWidth=1;fontFamily=Verdana;fontSize=12;align=center;" parent="1c1d494c118603dd-4" vertex="1">
          <mxGeometry x="100" y="880" width="40" height="40" as="geometry"/>
        </mxCell>
        <mxCell id="1c1d494c118603dd-22" value="Note" style="shape=note;whiteSpace=wrap;html=1;rounded=0;shadow=0;comic=0;labelBackgroundColor=none;strokeWidth=1;fontFamily=Verdana;fontSize=12;align=center;size=20;" parent="1c1d494c118603dd-4" vertex="1">
          <mxGeometry x="67.5" y="280" width="105" height="55" as="geometry"/>
        </mxCell>
        <mxCell id="1c1d494c118603dd-56" style="edgeStyle=none;rounded=0;html=1;dashed=1;labelBackgroundColor=none;startArrow=none;startFill=0;startSize=5;endArrow=oval;endFill=0;endSize=5;jettySize=auto;orthogonalLoop=1;strokeWidth=1;fontFamily=Verdana;fontSize=12" parent="1c1d494c118603dd-4" source="1c1d494c118603dd-25" target="1c1d494c118603dd-18" edge="1">
          <mxGeometry relative="1" as="geometry"/>
        </mxCell>
        <mxCell id="1c1d494c118603dd-57" style="edgeStyle=none;rounded=0;html=1;dashed=1;labelBackgroundColor=none;startArrow=none;startFill=0;startSize=5;endArrow=oval;endFill=0;endSize=5;jettySize=auto;orthogonalLoop=1;strokeWidth=1;fontFamily=Verdana;fontSize=12" parent="1c1d494c118603dd-4" source="1c1d494c118603dd-25" target="1c1d494c118603dd-17" edge="1">
          <mxGeometry relative="1" as="geometry"/>
        </mxCell>
        <mxCell id="1c1d494c118603dd-25" value="Note" style="shape=note;whiteSpace=wrap;html=1;rounded=0;shadow=0;comic=0;labelBackgroundColor=none;strokeWidth=1;fontFamily=Verdana;fontSize=12;align=center;size=20;" parent="1c1d494c118603dd-4" vertex="1">
          <mxGeometry x="120" y="590" width="115" height="50" as="geometry"/>
        </mxCell>
        <mxCell id="1c1d494c118603dd-58" style="edgeStyle=none;rounded=0;html=1;dashed=1;labelBackgroundColor=none;startArrow=none;startFill=0;startSize=5;endArrow=oval;endFill=0;endSize=5;jettySize=auto;orthogonalLoop=1;strokeWidth=1;fontFamily=Verdana;fontSize=12" parent="1c1d494c118603dd-4" source="1c1d494c118603dd-26" target="1c1d494c118603dd-19" edge="1">
          <mxGeometry relative="1" as="geometry"/>
        </mxCell>
        <mxCell id="1c1d494c118603dd-26" value="Note" style="shape=note;whiteSpace=wrap;html=1;rounded=0;shadow=0;comic=0;labelBackgroundColor=none;strokeWidth=1;fontFamily=Verdana;fontSize=12;align=center;size=20;" parent="1c1d494c118603dd-4" vertex="1">
          <mxGeometry x="150" y="740" width="95" height="45" as="geometry"/>
        </mxCell>
        <mxCell id="I3AY7QKZR8Awk9amFQ1F-122" value="明细表" style="rounded=0;whiteSpace=wrap;html=1;shadow=0;comic=0;labelBackgroundColor=none;strokeWidth=1;fontFamily=Verdana;fontSize=12;align=center;arcSize=50;" vertex="1" parent="1c1d494c118603dd-4">
          <mxGeometry x="150" y="200" width="70" height="30" as="geometry"/>
        </mxCell>
        <mxCell id="I3AY7QKZR8Awk9amFQ1F-1" value="个体司机账户账户及明细" style="swimlane;html=1;startSize=20;" vertex="1" parent="1c1d494c118603dd-1">
          <mxGeometry x="750" y="20" width="250" height="970" as="geometry"/>
        </mxCell>
        <mxCell id="I3AY7QKZR8Awk9amFQ1F-5" style="rounded=0;html=1;labelBackgroundColor=none;startArrow=none;startFill=0;startSize=5;endArrow=classicThin;endFill=1;endSize=5;jettySize=auto;orthogonalLoop=1;strokeWidth=1;fontFamily=Verdana;fontSize=12" edge="1" parent="I3AY7QKZR8Awk9amFQ1F-1" source="I3AY7QKZR8Awk9amFQ1F-6" target="I3AY7QKZR8Awk9amFQ1F-10">
          <mxGeometry relative="1" as="geometry"/>
        </mxCell>
        <mxCell id="I3AY7QKZR8Awk9amFQ1F-6" value="Action" style="rounded=1;whiteSpace=wrap;html=1;shadow=0;comic=0;labelBackgroundColor=none;strokeWidth=1;fontFamily=Verdana;fontSize=12;align=center;arcSize=50;" vertex="1" parent="I3AY7QKZR8Awk9amFQ1F-1">
          <mxGeometry x="45" y="208" width="100" height="30" as="geometry"/>
        </mxCell>
        <mxCell id="I3AY7QKZR8Awk9amFQ1F-7" style="edgeStyle=none;rounded=0;html=1;labelBackgroundColor=none;startArrow=none;startFill=0;startSize=5;endArrow=classicThin;endFill=1;endSize=5;jettySize=auto;orthogonalLoop=1;strokeWidth=1;fontFamily=Verdana;fontSize=12" edge="1" parent="I3AY7QKZR8Awk9amFQ1F-1" source="I3AY7QKZR8Awk9amFQ1F-8" target="I3AY7QKZR8Awk9amFQ1F-11">
          <mxGeometry relative="1" as="geometry"/>
        </mxCell>
        <mxCell id="I3AY7QKZR8Awk9amFQ1F-8" value="Action" style="rounded=1;whiteSpace=wrap;html=1;shadow=0;comic=0;labelBackgroundColor=none;strokeWidth=1;fontFamily=Verdana;fontSize=12;align=center;arcSize=50;" vertex="1" parent="I3AY7QKZR8Awk9amFQ1F-1">
          <mxGeometry x="85" y="330" width="100" height="30" as="geometry"/>
        </mxCell>
        <mxCell id="I3AY7QKZR8Awk9amFQ1F-9" style="edgeStyle=none;rounded=0;html=1;labelBackgroundColor=none;startArrow=none;startFill=0;startSize=5;endArrow=classicThin;endFill=1;endSize=5;jettySize=auto;orthogonalLoop=1;strokeWidth=1;fontFamily=Verdana;fontSize=12" edge="1" parent="I3AY7QKZR8Awk9amFQ1F-1" source="I3AY7QKZR8Awk9amFQ1F-10" target="I3AY7QKZR8Awk9amFQ1F-8">
          <mxGeometry relative="1" as="geometry"/>
        </mxCell>
        <mxCell id="I3AY7QKZR8Awk9amFQ1F-10" value="Object" style="rounded=0;whiteSpace=wrap;html=1;shadow=0;comic=0;labelBackgroundColor=none;strokeWidth=1;fontFamily=Verdana;fontSize=12;align=center;arcSize=50;" vertex="1" parent="I3AY7QKZR8Awk9amFQ1F-1">
          <mxGeometry x="15" y="268" width="70" height="30" as="geometry"/>
        </mxCell>
        <mxCell id="I3AY7QKZR8Awk9amFQ1F-11" value="Object" style="rounded=0;whiteSpace=wrap;html=1;shadow=0;comic=0;labelBackgroundColor=none;strokeWidth=1;fontFamily=Verdana;fontSize=12;align=center;arcSize=50;" vertex="1" parent="I3AY7QKZR8Awk9amFQ1F-1">
          <mxGeometry x="-35" y="360" width="70" height="30" as="geometry"/>
        </mxCell>
        <mxCell id="I3AY7QKZR8Awk9amFQ1F-12" style="edgeStyle=none;rounded=0;html=1;labelBackgroundColor=none;startArrow=none;startFill=0;startSize=5;endArrow=classicThin;endFill=1;endSize=5;jettySize=auto;orthogonalLoop=1;strokeWidth=1;fontFamily=Verdana;fontSize=12" edge="1" parent="I3AY7QKZR8Awk9amFQ1F-1" source="I3AY7QKZR8Awk9amFQ1F-13" target="I3AY7QKZR8Awk9amFQ1F-15">
          <mxGeometry relative="1" as="geometry"/>
        </mxCell>
        <mxCell id="I3AY7QKZR8Awk9amFQ1F-13" value="Object" style="rounded=0;whiteSpace=wrap;html=1;shadow=0;comic=0;labelBackgroundColor=none;strokeWidth=1;fontFamily=Verdana;fontSize=12;align=center;arcSize=50;" vertex="1" parent="I3AY7QKZR8Awk9amFQ1F-1">
          <mxGeometry x="-35" y="610" width="70" height="30" as="geometry"/>
        </mxCell>
        <mxCell id="I3AY7QKZR8Awk9amFQ1F-14" style="edgeStyle=none;rounded=0;html=1;labelBackgroundColor=none;startArrow=none;startFill=0;startSize=5;endArrow=classicThin;endFill=1;endSize=5;jettySize=auto;orthogonalLoop=1;strokeWidth=1;fontFamily=Verdana;fontSize=12" edge="1" parent="I3AY7QKZR8Awk9amFQ1F-1" source="I3AY7QKZR8Awk9amFQ1F-15" target="I3AY7QKZR8Awk9amFQ1F-17">
          <mxGeometry relative="1" as="geometry"/>
        </mxCell>
        <mxCell id="I3AY7QKZR8Awk9amFQ1F-15" value="Action" style="rounded=1;whiteSpace=wrap;html=1;shadow=0;comic=0;labelBackgroundColor=none;strokeWidth=1;fontFamily=Verdana;fontSize=12;align=center;arcSize=50;" vertex="1" parent="I3AY7QKZR8Awk9amFQ1F-1">
          <mxGeometry x="70" y="670" width="100" height="30" as="geometry"/>
        </mxCell>
        <mxCell id="I3AY7QKZR8Awk9amFQ1F-16" style="edgeStyle=none;rounded=0;html=1;labelBackgroundColor=none;startArrow=none;startFill=0;startSize=5;endArrow=classicThin;endFill=1;endSize=5;jettySize=auto;orthogonalLoop=1;strokeWidth=1;fontFamily=Verdana;fontSize=12" edge="1" parent="I3AY7QKZR8Awk9amFQ1F-1" source="I3AY7QKZR8Awk9amFQ1F-17" target="I3AY7QKZR8Awk9amFQ1F-18">
          <mxGeometry relative="1" as="geometry"/>
        </mxCell>
        <mxCell id="I3AY7QKZR8Awk9amFQ1F-17" value="Action" style="rounded=1;whiteSpace=wrap;html=1;shadow=0;comic=0;labelBackgroundColor=none;strokeWidth=1;fontFamily=Verdana;fontSize=12;align=center;arcSize=50;" vertex="1" parent="I3AY7QKZR8Awk9amFQ1F-1">
          <mxGeometry x="70" y="810" width="100" height="30" as="geometry"/>
        </mxCell>
        <mxCell id="I3AY7QKZR8Awk9amFQ1F-18" value="" style="shape=mxgraph.bpmn.shape;html=1;verticalLabelPosition=bottom;labelBackgroundColor=#ffffff;verticalAlign=top;perimeter=ellipsePerimeter;outline=end;symbol=terminate;rounded=0;shadow=0;comic=0;strokeWidth=1;fontFamily=Verdana;fontSize=12;align=center;" vertex="1" parent="I3AY7QKZR8Awk9amFQ1F-1">
          <mxGeometry x="100" y="880" width="40" height="40" as="geometry"/>
        </mxCell>
        <mxCell id="I3AY7QKZR8Awk9amFQ1F-19" style="edgeStyle=none;rounded=0;html=1;dashed=1;labelBackgroundColor=none;startArrow=none;startFill=0;startSize=5;endArrow=oval;endFill=0;endSize=5;jettySize=auto;orthogonalLoop=1;strokeWidth=1;fontFamily=Verdana;fontSize=12" edge="1" parent="I3AY7QKZR8Awk9amFQ1F-1" source="I3AY7QKZR8Awk9amFQ1F-21" target="I3AY7QKZR8Awk9amFQ1F-6">
          <mxGeometry relative="1" as="geometry"/>
        </mxCell>
        <mxCell id="I3AY7QKZR8Awk9amFQ1F-20" style="edgeStyle=none;rounded=0;html=1;dashed=1;labelBackgroundColor=none;startArrow=none;startFill=0;startSize=5;endArrow=oval;endFill=0;endSize=5;jettySize=auto;orthogonalLoop=1;strokeWidth=1;fontFamily=Verdana;fontSize=12" edge="1" parent="I3AY7QKZR8Awk9amFQ1F-1" source="I3AY7QKZR8Awk9amFQ1F-21" target="I3AY7QKZR8Awk9amFQ1F-10">
          <mxGeometry relative="1" as="geometry"/>
        </mxCell>
        <mxCell id="I3AY7QKZR8Awk9amFQ1F-21" value="Note" style="shape=note;whiteSpace=wrap;html=1;rounded=0;shadow=0;comic=0;labelBackgroundColor=none;strokeWidth=1;fontFamily=Verdana;fontSize=12;align=center;size=20;" vertex="1" parent="I3AY7QKZR8Awk9amFQ1F-1">
          <mxGeometry x="160" y="256" width="75" height="44" as="geometry"/>
        </mxCell>
        <mxCell id="I3AY7QKZR8Awk9amFQ1F-22" style="edgeStyle=none;rounded=0;html=1;dashed=1;labelBackgroundColor=none;startArrow=none;startFill=0;startSize=5;endArrow=oval;endFill=0;endSize=5;jettySize=auto;orthogonalLoop=1;strokeWidth=1;fontFamily=Verdana;fontSize=12" edge="1" parent="I3AY7QKZR8Awk9amFQ1F-1" source="I3AY7QKZR8Awk9amFQ1F-24" target="I3AY7QKZR8Awk9amFQ1F-8">
          <mxGeometry relative="1" as="geometry"/>
        </mxCell>
        <mxCell id="I3AY7QKZR8Awk9amFQ1F-23" style="edgeStyle=none;rounded=0;html=1;dashed=1;labelBackgroundColor=none;startArrow=none;startFill=0;startSize=5;endArrow=oval;endFill=0;endSize=5;jettySize=auto;orthogonalLoop=1;strokeWidth=1;fontFamily=Verdana;fontSize=12" edge="1" parent="I3AY7QKZR8Awk9amFQ1F-1" source="I3AY7QKZR8Awk9amFQ1F-24" target="I3AY7QKZR8Awk9amFQ1F-11">
          <mxGeometry relative="1" as="geometry"/>
        </mxCell>
        <mxCell id="I3AY7QKZR8Awk9amFQ1F-24" value="Note" style="shape=note;whiteSpace=wrap;html=1;rounded=0;shadow=0;comic=0;labelBackgroundColor=none;strokeWidth=1;fontFamily=Verdana;fontSize=12;align=center;size=20;" vertex="1" parent="I3AY7QKZR8Awk9amFQ1F-1">
          <mxGeometry x="110" y="415" width="105" height="55" as="geometry"/>
        </mxCell>
        <mxCell id="I3AY7QKZR8Awk9amFQ1F-25" style="edgeStyle=none;rounded=0;html=1;dashed=1;labelBackgroundColor=none;startArrow=none;startFill=0;startSize=5;endArrow=oval;endFill=0;endSize=5;jettySize=auto;orthogonalLoop=1;strokeWidth=1;fontFamily=Verdana;fontSize=12" edge="1" parent="I3AY7QKZR8Awk9amFQ1F-1" source="I3AY7QKZR8Awk9amFQ1F-27" target="I3AY7QKZR8Awk9amFQ1F-15">
          <mxGeometry relative="1" as="geometry"/>
        </mxCell>
        <mxCell id="I3AY7QKZR8Awk9amFQ1F-26" style="edgeStyle=none;rounded=0;html=1;dashed=1;labelBackgroundColor=none;startArrow=none;startFill=0;startSize=5;endArrow=oval;endFill=0;endSize=5;jettySize=auto;orthogonalLoop=1;strokeWidth=1;fontFamily=Verdana;fontSize=12" edge="1" parent="I3AY7QKZR8Awk9amFQ1F-1" source="I3AY7QKZR8Awk9amFQ1F-27" target="I3AY7QKZR8Awk9amFQ1F-13">
          <mxGeometry relative="1" as="geometry"/>
        </mxCell>
        <mxCell id="I3AY7QKZR8Awk9amFQ1F-27" value="Note" style="shape=note;whiteSpace=wrap;html=1;rounded=0;shadow=0;comic=0;labelBackgroundColor=none;strokeWidth=1;fontFamily=Verdana;fontSize=12;align=center;size=20;" vertex="1" parent="I3AY7QKZR8Awk9amFQ1F-1">
          <mxGeometry x="120" y="590" width="115" height="50" as="geometry"/>
        </mxCell>
        <mxCell id="I3AY7QKZR8Awk9amFQ1F-28" style="edgeStyle=none;rounded=0;html=1;dashed=1;labelBackgroundColor=none;startArrow=none;startFill=0;startSize=5;endArrow=oval;endFill=0;endSize=5;jettySize=auto;orthogonalLoop=1;strokeWidth=1;fontFamily=Verdana;fontSize=12" edge="1" parent="I3AY7QKZR8Awk9amFQ1F-1" source="I3AY7QKZR8Awk9amFQ1F-29" target="I3AY7QKZR8Awk9amFQ1F-17">
          <mxGeometry relative="1" as="geometry"/>
        </mxCell>
        <mxCell id="I3AY7QKZR8Awk9amFQ1F-29" value="Note" style="shape=note;whiteSpace=wrap;html=1;rounded=0;shadow=0;comic=0;labelBackgroundColor=none;strokeWidth=1;fontFamily=Verdana;fontSize=12;align=center;size=20;" vertex="1" parent="I3AY7QKZR8Awk9amFQ1F-1">
          <mxGeometry x="150" y="740" width="95" height="45" as="geometry"/>
        </mxCell>
        <mxCell id="I3AY7QKZR8Awk9amFQ1F-30" value="总平台账户及明细" style="swimlane;html=1;startSize=20;" vertex="1" parent="1c1d494c118603dd-1">
          <mxGeometry x="1000" y="20" width="250" height="970" as="geometry"/>
        </mxCell>
        <mxCell id="I3AY7QKZR8Awk9amFQ1F-34" style="rounded=0;html=1;labelBackgroundColor=none;startArrow=none;startFill=0;startSize=5;endArrow=classicThin;endFill=1;endSize=5;jettySize=auto;orthogonalLoop=1;strokeWidth=1;fontFamily=Verdana;fontSize=12" edge="1" parent="I3AY7QKZR8Awk9amFQ1F-30" source="I3AY7QKZR8Awk9amFQ1F-35" target="I3AY7QKZR8Awk9amFQ1F-39">
          <mxGeometry relative="1" as="geometry"/>
        </mxCell>
        <mxCell id="I3AY7QKZR8Awk9amFQ1F-35" value="Action" style="rounded=1;whiteSpace=wrap;html=1;shadow=0;comic=0;labelBackgroundColor=none;strokeWidth=1;fontFamily=Verdana;fontSize=12;align=center;arcSize=50;" vertex="1" parent="I3AY7QKZR8Awk9amFQ1F-30">
          <mxGeometry x="45" y="208" width="100" height="30" as="geometry"/>
        </mxCell>
        <mxCell id="I3AY7QKZR8Awk9amFQ1F-36" style="edgeStyle=none;rounded=0;html=1;labelBackgroundColor=none;startArrow=none;startFill=0;startSize=5;endArrow=classicThin;endFill=1;endSize=5;jettySize=auto;orthogonalLoop=1;strokeWidth=1;fontFamily=Verdana;fontSize=12" edge="1" parent="I3AY7QKZR8Awk9amFQ1F-30" source="I3AY7QKZR8Awk9amFQ1F-37" target="I3AY7QKZR8Awk9amFQ1F-40">
          <mxGeometry relative="1" as="geometry"/>
        </mxCell>
        <mxCell id="I3AY7QKZR8Awk9amFQ1F-37" value="Action" style="rounded=1;whiteSpace=wrap;html=1;shadow=0;comic=0;labelBackgroundColor=none;strokeWidth=1;fontFamily=Verdana;fontSize=12;align=center;arcSize=50;" vertex="1" parent="I3AY7QKZR8Awk9amFQ1F-30">
          <mxGeometry x="85" y="330" width="100" height="30" as="geometry"/>
        </mxCell>
        <mxCell id="I3AY7QKZR8Awk9amFQ1F-38" style="edgeStyle=none;rounded=0;html=1;labelBackgroundColor=none;startArrow=none;startFill=0;startSize=5;endArrow=classicThin;endFill=1;endSize=5;jettySize=auto;orthogonalLoop=1;strokeWidth=1;fontFamily=Verdana;fontSize=12" edge="1" parent="I3AY7QKZR8Awk9amFQ1F-30" source="I3AY7QKZR8Awk9amFQ1F-39" target="I3AY7QKZR8Awk9amFQ1F-37">
          <mxGeometry relative="1" as="geometry"/>
        </mxCell>
        <mxCell id="I3AY7QKZR8Awk9amFQ1F-39" value="Object" style="rounded=0;whiteSpace=wrap;html=1;shadow=0;comic=0;labelBackgroundColor=none;strokeWidth=1;fontFamily=Verdana;fontSize=12;align=center;arcSize=50;" vertex="1" parent="I3AY7QKZR8Awk9amFQ1F-30">
          <mxGeometry x="15" y="268" width="70" height="30" as="geometry"/>
        </mxCell>
        <mxCell id="I3AY7QKZR8Awk9amFQ1F-40" value="Object" style="rounded=0;whiteSpace=wrap;html=1;shadow=0;comic=0;labelBackgroundColor=none;strokeWidth=1;fontFamily=Verdana;fontSize=12;align=center;arcSize=50;" vertex="1" parent="I3AY7QKZR8Awk9amFQ1F-30">
          <mxGeometry x="-35" y="360" width="70" height="30" as="geometry"/>
        </mxCell>
        <mxCell id="I3AY7QKZR8Awk9amFQ1F-41" style="edgeStyle=none;rounded=0;html=1;labelBackgroundColor=none;startArrow=none;startFill=0;startSize=5;endArrow=classicThin;endFill=1;endSize=5;jettySize=auto;orthogonalLoop=1;strokeWidth=1;fontFamily=Verdana;fontSize=12" edge="1" parent="I3AY7QKZR8Awk9amFQ1F-30" source="I3AY7QKZR8Awk9amFQ1F-42" target="I3AY7QKZR8Awk9amFQ1F-44">
          <mxGeometry relative="1" as="geometry"/>
        </mxCell>
        <mxCell id="I3AY7QKZR8Awk9amFQ1F-42" value="Object" style="rounded=0;whiteSpace=wrap;html=1;shadow=0;comic=0;labelBackgroundColor=none;strokeWidth=1;fontFamily=Verdana;fontSize=12;align=center;arcSize=50;" vertex="1" parent="I3AY7QKZR8Awk9amFQ1F-30">
          <mxGeometry x="-35" y="610" width="70" height="30" as="geometry"/>
        </mxCell>
        <mxCell id="I3AY7QKZR8Awk9amFQ1F-43" style="edgeStyle=none;rounded=0;html=1;labelBackgroundColor=none;startArrow=none;startFill=0;startSize=5;endArrow=classicThin;endFill=1;endSize=5;jettySize=auto;orthogonalLoop=1;strokeWidth=1;fontFamily=Verdana;fontSize=12" edge="1" parent="I3AY7QKZR8Awk9amFQ1F-30" source="I3AY7QKZR8Awk9amFQ1F-44" target="I3AY7QKZR8Awk9amFQ1F-46">
          <mxGeometry relative="1" as="geometry"/>
        </mxCell>
        <mxCell id="I3AY7QKZR8Awk9amFQ1F-44" value="Action" style="rounded=1;whiteSpace=wrap;html=1;shadow=0;comic=0;labelBackgroundColor=none;strokeWidth=1;fontFamily=Verdana;fontSize=12;align=center;arcSize=50;" vertex="1" parent="I3AY7QKZR8Awk9amFQ1F-30">
          <mxGeometry x="70" y="670" width="100" height="30" as="geometry"/>
        </mxCell>
        <mxCell id="I3AY7QKZR8Awk9amFQ1F-45" style="edgeStyle=none;rounded=0;html=1;labelBackgroundColor=none;startArrow=none;startFill=0;startSize=5;endArrow=classicThin;endFill=1;endSize=5;jettySize=auto;orthogonalLoop=1;strokeWidth=1;fontFamily=Verdana;fontSize=12" edge="1" parent="I3AY7QKZR8Awk9amFQ1F-30" source="I3AY7QKZR8Awk9amFQ1F-46" target="I3AY7QKZR8Awk9amFQ1F-47">
          <mxGeometry relative="1" as="geometry"/>
        </mxCell>
        <mxCell id="I3AY7QKZR8Awk9amFQ1F-46" value="Action" style="rounded=1;whiteSpace=wrap;html=1;shadow=0;comic=0;labelBackgroundColor=none;strokeWidth=1;fontFamily=Verdana;fontSize=12;align=center;arcSize=50;" vertex="1" parent="I3AY7QKZR8Awk9amFQ1F-30">
          <mxGeometry x="70" y="810" width="100" height="30" as="geometry"/>
        </mxCell>
        <mxCell id="I3AY7QKZR8Awk9amFQ1F-47" value="" style="shape=mxgraph.bpmn.shape;html=1;verticalLabelPosition=bottom;labelBackgroundColor=#ffffff;verticalAlign=top;perimeter=ellipsePerimeter;outline=end;symbol=terminate;rounded=0;shadow=0;comic=0;strokeWidth=1;fontFamily=Verdana;fontSize=12;align=center;" vertex="1" parent="I3AY7QKZR8Awk9amFQ1F-30">
          <mxGeometry x="100" y="880" width="40" height="40" as="geometry"/>
        </mxCell>
        <mxCell id="I3AY7QKZR8Awk9amFQ1F-48" style="edgeStyle=none;rounded=0;html=1;dashed=1;labelBackgroundColor=none;startArrow=none;startFill=0;startSize=5;endArrow=oval;endFill=0;endSize=5;jettySize=auto;orthogonalLoop=1;strokeWidth=1;fontFamily=Verdana;fontSize=12" edge="1" parent="I3AY7QKZR8Awk9amFQ1F-30" source="I3AY7QKZR8Awk9amFQ1F-50" target="I3AY7QKZR8Awk9amFQ1F-35">
          <mxGeometry relative="1" as="geometry"/>
        </mxCell>
        <mxCell id="I3AY7QKZR8Awk9amFQ1F-49" style="edgeStyle=none;rounded=0;html=1;dashed=1;labelBackgroundColor=none;startArrow=none;startFill=0;startSize=5;endArrow=oval;endFill=0;endSize=5;jettySize=auto;orthogonalLoop=1;strokeWidth=1;fontFamily=Verdana;fontSize=12" edge="1" parent="I3AY7QKZR8Awk9amFQ1F-30" source="I3AY7QKZR8Awk9amFQ1F-50" target="I3AY7QKZR8Awk9amFQ1F-39">
          <mxGeometry relative="1" as="geometry"/>
        </mxCell>
        <mxCell id="I3AY7QKZR8Awk9amFQ1F-50" value="Note" style="shape=note;whiteSpace=wrap;html=1;rounded=0;shadow=0;comic=0;labelBackgroundColor=none;strokeWidth=1;fontFamily=Verdana;fontSize=12;align=center;size=20;" vertex="1" parent="I3AY7QKZR8Awk9amFQ1F-30">
          <mxGeometry x="160" y="256" width="75" height="44" as="geometry"/>
        </mxCell>
        <mxCell id="I3AY7QKZR8Awk9amFQ1F-51" style="edgeStyle=none;rounded=0;html=1;dashed=1;labelBackgroundColor=none;startArrow=none;startFill=0;startSize=5;endArrow=oval;endFill=0;endSize=5;jettySize=auto;orthogonalLoop=1;strokeWidth=1;fontFamily=Verdana;fontSize=12" edge="1" parent="I3AY7QKZR8Awk9amFQ1F-30" source="I3AY7QKZR8Awk9amFQ1F-53" target="I3AY7QKZR8Awk9amFQ1F-37">
          <mxGeometry relative="1" as="geometry"/>
        </mxCell>
        <mxCell id="I3AY7QKZR8Awk9amFQ1F-52" style="edgeStyle=none;rounded=0;html=1;dashed=1;labelBackgroundColor=none;startArrow=none;startFill=0;startSize=5;endArrow=oval;endFill=0;endSize=5;jettySize=auto;orthogonalLoop=1;strokeWidth=1;fontFamily=Verdana;fontSize=12" edge="1" parent="I3AY7QKZR8Awk9amFQ1F-30" source="I3AY7QKZR8Awk9amFQ1F-53" target="I3AY7QKZR8Awk9amFQ1F-40">
          <mxGeometry relative="1" as="geometry"/>
        </mxCell>
        <mxCell id="I3AY7QKZR8Awk9amFQ1F-53" value="Note" style="shape=note;whiteSpace=wrap;html=1;rounded=0;shadow=0;comic=0;labelBackgroundColor=none;strokeWidth=1;fontFamily=Verdana;fontSize=12;align=center;size=20;" vertex="1" parent="I3AY7QKZR8Awk9amFQ1F-30">
          <mxGeometry x="110" y="415" width="105" height="55" as="geometry"/>
        </mxCell>
        <mxCell id="I3AY7QKZR8Awk9amFQ1F-54" style="edgeStyle=none;rounded=0;html=1;dashed=1;labelBackgroundColor=none;startArrow=none;startFill=0;startSize=5;endArrow=oval;endFill=0;endSize=5;jettySize=auto;orthogonalLoop=1;strokeWidth=1;fontFamily=Verdana;fontSize=12" edge="1" parent="I3AY7QKZR8Awk9amFQ1F-30" source="I3AY7QKZR8Awk9amFQ1F-56" target="I3AY7QKZR8Awk9amFQ1F-44">
          <mxGeometry relative="1" as="geometry"/>
        </mxCell>
        <mxCell id="I3AY7QKZR8Awk9amFQ1F-55" style="edgeStyle=none;rounded=0;html=1;dashed=1;labelBackgroundColor=none;startArrow=none;startFill=0;startSize=5;endArrow=oval;endFill=0;endSize=5;jettySize=auto;orthogonalLoop=1;strokeWidth=1;fontFamily=Verdana;fontSize=12" edge="1" parent="I3AY7QKZR8Awk9amFQ1F-30" source="I3AY7QKZR8Awk9amFQ1F-56" target="I3AY7QKZR8Awk9amFQ1F-42">
          <mxGeometry relative="1" as="geometry"/>
        </mxCell>
        <mxCell id="I3AY7QKZR8Awk9amFQ1F-56" value="Note" style="shape=note;whiteSpace=wrap;html=1;rounded=0;shadow=0;comic=0;labelBackgroundColor=none;strokeWidth=1;fontFamily=Verdana;fontSize=12;align=center;size=20;" vertex="1" parent="I3AY7QKZR8Awk9amFQ1F-30">
          <mxGeometry x="120" y="590" width="115" height="50" as="geometry"/>
        </mxCell>
        <mxCell id="I3AY7QKZR8Awk9amFQ1F-57" style="edgeStyle=none;rounded=0;html=1;dashed=1;labelBackgroundColor=none;startArrow=none;startFill=0;startSize=5;endArrow=oval;endFill=0;endSize=5;jettySize=auto;orthogonalLoop=1;strokeWidth=1;fontFamily=Verdana;fontSize=12" edge="1" parent="I3AY7QKZR8Awk9amFQ1F-30" source="I3AY7QKZR8Awk9amFQ1F-58" target="I3AY7QKZR8Awk9amFQ1F-46">
          <mxGeometry relative="1" as="geometry"/>
        </mxCell>
        <mxCell id="I3AY7QKZR8Awk9amFQ1F-58" value="Note" style="shape=note;whiteSpace=wrap;html=1;rounded=0;shadow=0;comic=0;labelBackgroundColor=none;strokeWidth=1;fontFamily=Verdana;fontSize=12;align=center;size=20;" vertex="1" parent="I3AY7QKZR8Awk9amFQ1F-30">
          <mxGeometry x="150" y="740" width="95" height="45" as="geometry"/>
        </mxCell>
        <mxCell id="I3AY7QKZR8Awk9amFQ1F-59" value="总平台银行账户（含微信，支付宝）" style="swimlane;html=1;startSize=20;" vertex="1" parent="1c1d494c118603dd-1">
          <mxGeometry x="1250" y="20" width="250" height="970" as="geometry"/>
        </mxCell>
        <mxCell id="I3AY7QKZR8Awk9amFQ1F-60" style="edgeStyle=orthogonalEdgeStyle;rounded=0;html=1;labelBackgroundColor=none;startArrow=none;startFill=0;startSize=5;endArrow=classicThin;endFill=1;endSize=5;jettySize=auto;orthogonalLoop=1;strokeWidth=1;fontFamily=Verdana;fontSize=12" edge="1" parent="I3AY7QKZR8Awk9amFQ1F-59" source="I3AY7QKZR8Awk9amFQ1F-61">
          <mxGeometry relative="1" as="geometry">
            <mxPoint x="100" y="110" as="targetPoint"/>
          </mxGeometry>
        </mxCell>
        <mxCell id="I3AY7QKZR8Awk9amFQ1F-63" style="rounded=0;html=1;labelBackgroundColor=none;startArrow=none;startFill=0;startSize=5;endArrow=classicThin;endFill=1;endSize=5;jettySize=auto;orthogonalLoop=1;strokeWidth=1;fontFamily=Verdana;fontSize=12" edge="1" parent="I3AY7QKZR8Awk9amFQ1F-59" source="I3AY7QKZR8Awk9amFQ1F-64" target="I3AY7QKZR8Awk9amFQ1F-68">
          <mxGeometry relative="1" as="geometry"/>
        </mxCell>
        <mxCell id="I3AY7QKZR8Awk9amFQ1F-64" value="Action" style="rounded=1;whiteSpace=wrap;html=1;shadow=0;comic=0;labelBackgroundColor=none;strokeWidth=1;fontFamily=Verdana;fontSize=12;align=center;arcSize=50;" vertex="1" parent="I3AY7QKZR8Awk9amFQ1F-59">
          <mxGeometry x="45" y="208" width="100" height="30" as="geometry"/>
        </mxCell>
        <mxCell id="I3AY7QKZR8Awk9amFQ1F-65" style="edgeStyle=none;rounded=0;html=1;labelBackgroundColor=none;startArrow=none;startFill=0;startSize=5;endArrow=classicThin;endFill=1;endSize=5;jettySize=auto;orthogonalLoop=1;strokeWidth=1;fontFamily=Verdana;fontSize=12" edge="1" parent="I3AY7QKZR8Awk9amFQ1F-59" source="I3AY7QKZR8Awk9amFQ1F-66" target="I3AY7QKZR8Awk9amFQ1F-69">
          <mxGeometry relative="1" as="geometry"/>
        </mxCell>
        <mxCell id="I3AY7QKZR8Awk9amFQ1F-66" value="Action" style="rounded=1;whiteSpace=wrap;html=1;shadow=0;comic=0;labelBackgroundColor=none;strokeWidth=1;fontFamily=Verdana;fontSize=12;align=center;arcSize=50;" vertex="1" parent="I3AY7QKZR8Awk9amFQ1F-59">
          <mxGeometry x="85" y="330" width="100" height="30" as="geometry"/>
        </mxCell>
        <mxCell id="I3AY7QKZR8Awk9amFQ1F-67" style="edgeStyle=none;rounded=0;html=1;labelBackgroundColor=none;startArrow=none;startFill=0;startSize=5;endArrow=classicThin;endFill=1;endSize=5;jettySize=auto;orthogonalLoop=1;strokeWidth=1;fontFamily=Verdana;fontSize=12" edge="1" parent="I3AY7QKZR8Awk9amFQ1F-59" source="I3AY7QKZR8Awk9amFQ1F-68" target="I3AY7QKZR8Awk9amFQ1F-66">
          <mxGeometry relative="1" as="geometry"/>
        </mxCell>
        <mxCell id="I3AY7QKZR8Awk9amFQ1F-68" value="Object" style="rounded=0;whiteSpace=wrap;html=1;shadow=0;comic=0;labelBackgroundColor=none;strokeWidth=1;fontFamily=Verdana;fontSize=12;align=center;arcSize=50;" vertex="1" parent="I3AY7QKZR8Awk9amFQ1F-59">
          <mxGeometry x="15" y="268" width="70" height="30" as="geometry"/>
        </mxCell>
        <mxCell id="I3AY7QKZR8Awk9amFQ1F-69" value="Object" style="rounded=0;whiteSpace=wrap;html=1;shadow=0;comic=0;labelBackgroundColor=none;strokeWidth=1;fontFamily=Verdana;fontSize=12;align=center;arcSize=50;" vertex="1" parent="I3AY7QKZR8Awk9amFQ1F-59">
          <mxGeometry x="-35" y="360" width="70" height="30" as="geometry"/>
        </mxCell>
        <mxCell id="I3AY7QKZR8Awk9amFQ1F-70" style="edgeStyle=none;rounded=0;html=1;labelBackgroundColor=none;startArrow=none;startFill=0;startSize=5;endArrow=classicThin;endFill=1;endSize=5;jettySize=auto;orthogonalLoop=1;strokeWidth=1;fontFamily=Verdana;fontSize=12" edge="1" parent="I3AY7QKZR8Awk9amFQ1F-59" source="I3AY7QKZR8Awk9amFQ1F-71" target="I3AY7QKZR8Awk9amFQ1F-73">
          <mxGeometry relative="1" as="geometry"/>
        </mxCell>
        <mxCell id="I3AY7QKZR8Awk9amFQ1F-71" value="Object" style="rounded=0;whiteSpace=wrap;html=1;shadow=0;comic=0;labelBackgroundColor=none;strokeWidth=1;fontFamily=Verdana;fontSize=12;align=center;arcSize=50;" vertex="1" parent="I3AY7QKZR8Awk9amFQ1F-59">
          <mxGeometry x="-35" y="610" width="70" height="30" as="geometry"/>
        </mxCell>
        <mxCell id="I3AY7QKZR8Awk9amFQ1F-72" style="edgeStyle=none;rounded=0;html=1;labelBackgroundColor=none;startArrow=none;startFill=0;startSize=5;endArrow=classicThin;endFill=1;endSize=5;jettySize=auto;orthogonalLoop=1;strokeWidth=1;fontFamily=Verdana;fontSize=12" edge="1" parent="I3AY7QKZR8Awk9amFQ1F-59" source="I3AY7QKZR8Awk9amFQ1F-73" target="I3AY7QKZR8Awk9amFQ1F-75">
          <mxGeometry relative="1" as="geometry"/>
        </mxCell>
        <mxCell id="I3AY7QKZR8Awk9amFQ1F-73" value="Action" style="rounded=1;whiteSpace=wrap;html=1;shadow=0;comic=0;labelBackgroundColor=none;strokeWidth=1;fontFamily=Verdana;fontSize=12;align=center;arcSize=50;" vertex="1" parent="I3AY7QKZR8Awk9amFQ1F-59">
          <mxGeometry x="70" y="670" width="100" height="30" as="geometry"/>
        </mxCell>
        <mxCell id="I3AY7QKZR8Awk9amFQ1F-74" style="edgeStyle=none;rounded=0;html=1;labelBackgroundColor=none;startArrow=none;startFill=0;startSize=5;endArrow=classicThin;endFill=1;endSize=5;jettySize=auto;orthogonalLoop=1;strokeWidth=1;fontFamily=Verdana;fontSize=12" edge="1" parent="I3AY7QKZR8Awk9amFQ1F-59" source="I3AY7QKZR8Awk9amFQ1F-75" target="I3AY7QKZR8Awk9amFQ1F-76">
          <mxGeometry relative="1" as="geometry"/>
        </mxCell>
        <mxCell id="I3AY7QKZR8Awk9amFQ1F-75" value="Action" style="rounded=1;whiteSpace=wrap;html=1;shadow=0;comic=0;labelBackgroundColor=none;strokeWidth=1;fontFamily=Verdana;fontSize=12;align=center;arcSize=50;" vertex="1" parent="I3AY7QKZR8Awk9amFQ1F-59">
          <mxGeometry x="70" y="810" width="100" height="30" as="geometry"/>
        </mxCell>
        <mxCell id="I3AY7QKZR8Awk9amFQ1F-76" value="" style="shape=mxgraph.bpmn.shape;html=1;verticalLabelPosition=bottom;labelBackgroundColor=#ffffff;verticalAlign=top;perimeter=ellipsePerimeter;outline=end;symbol=terminate;rounded=0;shadow=0;comic=0;strokeWidth=1;fontFamily=Verdana;fontSize=12;align=center;" vertex="1" parent="I3AY7QKZR8Awk9amFQ1F-59">
          <mxGeometry x="100" y="880" width="40" height="40" as="geometry"/>
        </mxCell>
        <mxCell id="I3AY7QKZR8Awk9amFQ1F-77" style="edgeStyle=none;rounded=0;html=1;dashed=1;labelBackgroundColor=none;startArrow=none;startFill=0;startSize=5;endArrow=oval;endFill=0;endSize=5;jettySize=auto;orthogonalLoop=1;strokeWidth=1;fontFamily=Verdana;fontSize=12" edge="1" parent="I3AY7QKZR8Awk9amFQ1F-59" source="I3AY7QKZR8Awk9amFQ1F-79" target="I3AY7QKZR8Awk9amFQ1F-64">
          <mxGeometry relative="1" as="geometry"/>
        </mxCell>
        <mxCell id="I3AY7QKZR8Awk9amFQ1F-78" style="edgeStyle=none;rounded=0;html=1;dashed=1;labelBackgroundColor=none;startArrow=none;startFill=0;startSize=5;endArrow=oval;endFill=0;endSize=5;jettySize=auto;orthogonalLoop=1;strokeWidth=1;fontFamily=Verdana;fontSize=12" edge="1" parent="I3AY7QKZR8Awk9amFQ1F-59" source="I3AY7QKZR8Awk9amFQ1F-79" target="I3AY7QKZR8Awk9amFQ1F-68">
          <mxGeometry relative="1" as="geometry"/>
        </mxCell>
        <mxCell id="I3AY7QKZR8Awk9amFQ1F-79" value="Note" style="shape=note;whiteSpace=wrap;html=1;rounded=0;shadow=0;comic=0;labelBackgroundColor=none;strokeWidth=1;fontFamily=Verdana;fontSize=12;align=center;size=20;" vertex="1" parent="I3AY7QKZR8Awk9amFQ1F-59">
          <mxGeometry x="160" y="256" width="75" height="44" as="geometry"/>
        </mxCell>
        <mxCell id="I3AY7QKZR8Awk9amFQ1F-80" style="edgeStyle=none;rounded=0;html=1;dashed=1;labelBackgroundColor=none;startArrow=none;startFill=0;startSize=5;endArrow=oval;endFill=0;endSize=5;jettySize=auto;orthogonalLoop=1;strokeWidth=1;fontFamily=Verdana;fontSize=12" edge="1" parent="I3AY7QKZR8Awk9amFQ1F-59" source="I3AY7QKZR8Awk9amFQ1F-82" target="I3AY7QKZR8Awk9amFQ1F-66">
          <mxGeometry relative="1" as="geometry"/>
        </mxCell>
        <mxCell id="I3AY7QKZR8Awk9amFQ1F-81" style="edgeStyle=none;rounded=0;html=1;dashed=1;labelBackgroundColor=none;startArrow=none;startFill=0;startSize=5;endArrow=oval;endFill=0;endSize=5;jettySize=auto;orthogonalLoop=1;strokeWidth=1;fontFamily=Verdana;fontSize=12" edge="1" parent="I3AY7QKZR8Awk9amFQ1F-59" source="I3AY7QKZR8Awk9amFQ1F-82" target="I3AY7QKZR8Awk9amFQ1F-69">
          <mxGeometry relative="1" as="geometry"/>
        </mxCell>
        <mxCell id="I3AY7QKZR8Awk9amFQ1F-82" value="Note" style="shape=note;whiteSpace=wrap;html=1;rounded=0;shadow=0;comic=0;labelBackgroundColor=none;strokeWidth=1;fontFamily=Verdana;fontSize=12;align=center;size=20;" vertex="1" parent="I3AY7QKZR8Awk9amFQ1F-59">
          <mxGeometry x="110" y="415" width="105" height="55" as="geometry"/>
        </mxCell>
        <mxCell id="I3AY7QKZR8Awk9amFQ1F-83" style="edgeStyle=none;rounded=0;html=1;dashed=1;labelBackgroundColor=none;startArrow=none;startFill=0;startSize=5;endArrow=oval;endFill=0;endSize=5;jettySize=auto;orthogonalLoop=1;strokeWidth=1;fontFamily=Verdana;fontSize=12" edge="1" parent="I3AY7QKZR8Awk9amFQ1F-59" source="I3AY7QKZR8Awk9amFQ1F-85" target="I3AY7QKZR8Awk9amFQ1F-73">
          <mxGeometry relative="1" as="geometry"/>
        </mxCell>
        <mxCell id="I3AY7QKZR8Awk9amFQ1F-84" style="edgeStyle=none;rounded=0;html=1;dashed=1;labelBackgroundColor=none;startArrow=none;startFill=0;startSize=5;endArrow=oval;endFill=0;endSize=5;jettySize=auto;orthogonalLoop=1;strokeWidth=1;fontFamily=Verdana;fontSize=12" edge="1" parent="I3AY7QKZR8Awk9amFQ1F-59" source="I3AY7QKZR8Awk9amFQ1F-85" target="I3AY7QKZR8Awk9amFQ1F-71">
          <mxGeometry relative="1" as="geometry"/>
        </mxCell>
        <mxCell id="I3AY7QKZR8Awk9amFQ1F-85" value="Note" style="shape=note;whiteSpace=wrap;html=1;rounded=0;shadow=0;comic=0;labelBackgroundColor=none;strokeWidth=1;fontFamily=Verdana;fontSize=12;align=center;size=20;" vertex="1" parent="I3AY7QKZR8Awk9amFQ1F-59">
          <mxGeometry x="120" y="590" width="115" height="50" as="geometry"/>
        </mxCell>
        <mxCell id="I3AY7QKZR8Awk9amFQ1F-86" style="edgeStyle=none;rounded=0;html=1;dashed=1;labelBackgroundColor=none;startArrow=none;startFill=0;startSize=5;endArrow=oval;endFill=0;endSize=5;jettySize=auto;orthogonalLoop=1;strokeWidth=1;fontFamily=Verdana;fontSize=12" edge="1" parent="I3AY7QKZR8Awk9amFQ1F-59" source="I3AY7QKZR8Awk9amFQ1F-87" target="I3AY7QKZR8Awk9amFQ1F-75">
          <mxGeometry relative="1" as="geometry"/>
        </mxCell>
        <mxCell id="I3AY7QKZR8Awk9amFQ1F-87" value="Note" style="shape=note;whiteSpace=wrap;html=1;rounded=0;shadow=0;comic=0;labelBackgroundColor=none;strokeWidth=1;fontFamily=Verdana;fontSize=12;align=center;size=20;" vertex="1" parent="I3AY7QKZR8Awk9amFQ1F-59">
          <mxGeometry x="150" y="740" width="95" height="45" as="geometry"/>
        </mxCell>
      </root>
    </mxGraphModel>
  </diagram>
</mxfile>
